<?xml version="1.0" standalone="no"?>
<!DOCTYPE svg PUBLIC "-//W3C//DTD SVG 20010904//EN"
 "http://www.w3.org/TR/2001/REC-SVG-20010904/DTD/svg10.dtd">
<svg version="1.0" xmlns="http://www.w3.org/2000/svg"
 width="262.000000pt" height="262.000000pt" viewBox="0 0 262.000000 262.000000"
 preserveAspectRatio="xMidYMid meet">
<metadata>
Created by potrace 1.14, written by Peter Selinger 2001-2017
</metadata>
<g transform="translate(0.000000,262.000000) scale(0.100000,-0.100000)"
fill="#000000" stroke="none">
<path d="M1437 2492 c-2 -4 -3 -21 -3 -38 l2 -31 -121 -1 c-66 -1 -122 -2
-125 -3 -3 -1 -8 -1 -11 -1 -4 1 -22 -3 -40 -9 -45 -14 -97 -22 -136 -21 -24
0 -30 -3 -26 -14 3 -8 2 -14 -3 -13 -38 10 -284 -92 -320 -132 -10 -11 -22
-19 -28 -19 -6 0 -23 -8 -36 -17 -14 -10 -32 -18 -40 -18 -8 0 -17 -10 -20
-22 -3 -12 -30 -50 -60 -84 -30 -34 -74 -86 -97 -117 -48 -64 -133 -216 -133
-237 0 -8 -11 -47 -24 -87 -20 -60 -24 -89 -21 -163 2 -49 8 -112 14 -140 6
-27 14 -62 17 -77 3 -14 13 -56 24 -91 10 -36 16 -68 13 -71 -3 -3 0 -12 7
-21 7 -8 10 -15 7 -15 -4 0 13 -37 37 -83 73 -139 104 -200 131 -257 14 -30
32 -66 40 -80 8 -14 15 -32 15 -41 0 -22 19 -37 51 -41 15 -2 59 -30 98 -62
77 -62 213 -132 277 -142 22 -3 42 -8 47 -11 4 -2 44 -6 90 -9 70 -3 114 -8
162 -18 6 -1 15 -4 20 -8 19 -12 151 -2 165 12 6 6 85 41 200 87 129 52 144
60 174 88 15 14 31 25 35 25 5 0 12 7 15 15 3 9 11 15 18 14 42 -5 69 2 66 18
-2 10 10 25 28 37 26 18 31 27 29 56 -4 59 -15 87 -41 99 -36 16 -55 71 -59
171 -1 30 -4 60 -5 65 -1 6 -3 21 -3 35 -2 20 -7 24 -24 22 -23 -3 -31 12 -13
23 17 10 12 73 -6 83 -13 7 -15 17 -10 38 5 19 10 24 15 15 5 -7 17 -11 27 -9
14 3 18 11 17 31 -1 15 3 27 8 27 6 0 7 5 4 10 -3 6 -2 10 3 10 6 0 8 9 5 19
-6 24 60 65 143 88 37 11 67 28 89 50 17 18 40 33 50 33 26 0 55 29 48 48 -5
10 -3 13 6 7 7 -4 23 -3 34 3 12 6 29 12 38 15 12 4 16 15 13 44 -3 40 -48
143 -68 156 -8 5 -7 10 4 16 12 9 12 12 -2 28 -18 21 -70 113 -63 113 8 0 -48
124 -65 145 -9 11 -32 43 -50 70 -57 85 -102 125 -175 159 -38 18 -81 45 -95
59 -29 31 -34 32 -54 12 -13 -13 -16 -13 -30 1 -9 8 -16 24 -16 35 0 14 -7 19
-25 19 -14 0 -32 8 -41 19 -15 17 -19 17 -54 4 -28 -11 -48 -13 -77 -6 -36 8
-38 11 -36 45 1 24 -3 38 -12 42 -8 3 -16 2 -18 -2z m-191 -841 c5 1 30 -1 56
-5 38 -7 56 -17 95 -58 26 -27 58 -60 69 -71 25 -26 70 -110 79 -148 6 -23 2
-30 -24 -45 -17 -10 -34 -26 -37 -36 -4 -13 -12 -16 -30 -12 -24 6 -24 6 -18
-47 5 -49 4 -56 -19 -78 -23 -21 -32 -23 -89 -18 -35 3 -79 12 -99 21 -20 8
-39 13 -42 10 -3 -3 -31 3 -64 13 -45 14 -71 31 -115 76 -32 31 -58 66 -58 76
0 11 -7 27 -16 35 -11 12 -14 33 -12 87 3 70 3 71 47 111 50 45 95 70 131 76
13 2 30 8 37 14 7 5 16 7 22 4 5 -3 20 -2 33 3 13 5 28 5 34 -1 7 -5 16 -8 20
-7z"/>
<path d="M2075 1190 c-3 -6 1 -7 9 -4 18 7 21 14 7 14 -6 0 -13 -4 -16 -10z"/>
<path d="M2040 1179 c0 -5 5 -7 10 -4 6 3 10 8 10 11 0 2 -4 4 -10 4 -5 0 -10
-5 -10 -11z"/>
<path d="M1989 1153 c-13 -16 -12 -17 4 -4 16 13 21 21 13 21 -2 0 -10 -8 -17
-17z"/>
</g>
</svg>
